<svg id="Layer_1" data-name="Layer 1" xmlns="http://www.w3.org/2000/svg" viewBox="0 0 760.64469 451.39524">
  <title>zelda-001</title>
  <g>
    <path d="M501.94167,239.31554c.98819-.23528,1.37627.38119,1.8563.72436a116.43744,116.43744,0,0,1,37.31865,43.841c.87594,1.7772,1.68317,2.00934,3.51125,1.34405q88.96023-32.37563,177.96187-64.63768,28.1394-10.21282,56.28324-20.41326c.61282-.22185,1.34264-.89806,1.91452-.28.52838.57107-.06982,1.33081-.276,1.96561q-14.513,44.70072-29.00275,89.40887a3.9284,3.9284,0,0,1-3.82089,3.11879q-31.20074,3.78834-62.38452,7.71523c-17.70374,2.21912-35.39849,4.50906-53.10191,6.73077q-25.13712,3.15461-50.2834,6.23669c-9.13679,1.1363-18.269,2.30967-27.40738,3.43282-1.51987.18683-2.17969.62511-1.79961,2.401a38.15029,38.15029,0,0,1,.08491,17.55969c-.24612.97242-.0824,1.45991,1.13123,1.567q18.88023,1.666,37.74963,3.45383c14.287,1.34289,28.56836,2.74669,42.85639,4.07833,13.02414,1.21385,26.05629,2.34084,39.08053,3.55347,12.89713,1.20083,25.78736,2.47593,38.68337,3.68841,6.1956.5825,12.39712,1.10217,18.5971,1.6373,2.68063.23137,2.78827.39219,1.57,2.75833q-17.67945,34.33705-35.32895,68.68948c-.79023,1.5429-1.53282,1.7879-3.09987,1.19345q-56.78235-21.5406-113.59482-43.00162c-9.92809-3.75486-19.86923-7.47543-29.78218-11.2698-1.28074-.49023-1.77218-.29311-2.108,1.06479a48.462,48.462,0,0,1-6.997,16.39039c-.84491,1.21013.04854,1.54831.73425,2.05712q10.57,7.84273,21.14917,15.67317,44.38548,32.85336,88.77348,65.70329c1.75458,1.29856,1.78215,1.33244-.0755,2.58966q-25.19614,17.05219-50.39244,34.10413c-1.23007.8352-1.88071.67481-2.80863-.44256q-36.678-44.16868-73.3941-88.30577c-1.11371-1.34169-1.702-1.42537-2.83773-.04041-3.73948,4.56-7.92917,8.61994-13.532,10.87287-1.36383.54841-.96392,1.3987-.55814,2.30508q3.46753,7.7453,6.93963,15.48849,16.15085,36.01851,32.30016,72.03771c1.08931,2.43037,1.0758,2.45177-1.552,3.04151q-23.2443,5.21653-46.48585,10.44508c-1.50888.34213-2.15812.00708-2.458-1.56561q-4.78206-25.08241-9.66069-50.14642c-2.13488-11.03806-4.31349-22.06782-6.38307-33.11806-.28161-1.50382-.78637-1.68766-2.13675-1.30792-18.4105,5.1774-32.68977-7.4847-35.46174-21.96833-2.2999-12.01679,3.8549-22.62817,15.93356-26.91393a133.61,133.61,0,0,0,27.0825-12.60974c18.50059-11.7078,30.76738-27.85021,35.09886-49.575a103.344,103.344,0,0,0,1.10947-30.92562c-2.4143-23.56113-10.215-45.53448-19.63154-67.04007C502.83447,241.54777,502.40819,240.45011,501.94167,239.31554Z" transform="translate(-20.35531 -173.86727)"/>
    <path d="M299.15776,239.31267c.2078.8377-.33788,1.4584-.63313,2.12283-7.97044,17.93585-14.72308,36.27314-18.36179,55.63681a129.083,129.083,0,0,0-2.45473,27.47342c.52116,18.67556,5.75794,35.66657,18.29,49.9642,8.57777,9.78619,19.13018,16.85032,30.83532,22.31184a134.9283,134.9283,0,0,0,13.61256,5.48674,28.78807,28.78807,0,0,1,10.52908,6.00042c7.22063,6.6944,9.096,17.07454,4.90459,27.06437-5.63765,13.43682-19.09683,20.115-33.2271,16.39827-1.73727-.457-2.38591-.27181-2.7575,1.67388q-7.86468,41.17885-15.89118,82.32689c-.45858,2.36935-.53008,2.43223-2.83541,1.91453q-23.24471-5.22031-46.48813-10.44622c-2.22664-.50076-2.25968-.57181-1.35841-2.58389q19.64545-43.85844,39.3209-87.70346c.6196-1.37843.63856-2.06554-.93432-2.69551-5.29477-2.12062-9.165-6.08288-12.81387-10.28664-1.70136-1.96007-1.69321-1.97691-3.39627.0694q-36.545,43.911-73.06289,87.84459c-.97472,1.17375-1.66461,1.35042-2.95939.47064q-25.24481-17.15294-50.567-34.19162c-1.8006-1.21041-.83205-1.72985.23185-2.51675q33.7415-24.95514,67.46931-49.92881,21.00695-15.54678,42.03758-31.06126c1.32287-.97254,1.68683-1.62065.63572-3.136a46.56967,46.56967,0,0,1-6.50793-15.57483c-.37574-1.508-.92522-1.59565-2.23293-1.10018q-70.97045,26.88828-141.96736,53.70669c-3.85683,1.45688-3.05961,1.75446-4.90842-1.82384q-17.42214-33.72008-34.81373-67.456c-1.28137-2.48413-1.18268-2.58345,1.62721-2.84091,12.14082-1.11241,24.27783-2.26639,36.41826-3.3831,10.24394-.94229,20.4927-1.83253,30.73564-2.78542,10.17617-.94664,20.346-1.96132,30.52185-2.91151,8.91506-.83244,17.83652-1.596,26.75162-2.42792,10.17874-.94983,20.35272-1.95063,30.53038-2.91216,7.20714-.68088,14.41343-1.37754,21.62868-1.96068,1.42115-.11485,1.70243-.54207,1.39621-1.85009a40.15661,40.15661,0,0,1,.14458-17.39748c.31859-1.55365-.15455-2.103-1.57477-2.27735q-14.1804-1.74033-28.35729-3.50876-16.06742-2.00652-32.13189-4.03636-15.87777-1.99078-31.75656-3.9734-16.06519-2.01878-32.12842-4.05323-15.87694-1.9923-31.75661-3.9628-16.06716-2.01055-32.13266-4.03437c-2.07894-.26131-4.15116-.59944-6.23724-.77205a2.4621,2.4621,0,0,1-2.381-2.01093q-6.80238-21.04575-13.68135-42.06675-7.67665-23.56826-15.33453-47.14257c-.32013-.98815-1.24161-2.27618-.49563-2.99836.75957-.73535,1.98207.27544,2.95886.62953q63.6392,23.06975,127.26766,46.16906,52.96523,19.22409,105.91151,38.50016c1.79763.65588,2.57426.4416,3.44151-1.34107a115.7762,115.7762,0,0,1,37.43342-43.98352C298.08631,239.63058,298.45551,239.09959,299.15776,239.31267Z" transform="translate(-20.35531 -173.86727)"/>
    <path d="M341.68927,264.14415c.83737-2.29679,2.41215-4.16044,3.70768-6.17717q26.59325-41.39725,53.25564-82.75011c1.15957-1.8008,1.35533-1.80087,2.52748.00821q48.68841,75.14456,97.66508,150.10151,8.57671,13.07671,17.08957,26.19525c.36605.56264,1.15289,1.14083.81129,1.81059-.39475.774-1.37143.46865-2.10284.46889-37.38474.01231-74.7706.19607-112.15385-.04034-38.46313-.24324-76.92523-.021-115.38743-.1759-.89573-.00361-2.14816.52269-2.61982-.42462-.39323-.78987.63864-1.55744,1.10505-2.28305q27.68653-43.07421,55.39827-86.13226c.17159-.26677.27241-.58741.67365-.56893a7.04012,7.04012,0,0,0,1.23551,2.3463q26.17142,39.74129,52.34407,79.48175c1.29364,1.96448,2.59863,3.92215,3.85236,5.91193.60164.95488,1.06117.91778,1.62907-.01108.69607-1.13858,1.44038-2.248,2.17421-3.36314q26.89006-40.8665,53.77472-81.7365a5.99061,5.99061,0,0,0,1.26807-2.48614h-2.39241q-55.50637,0-111.01277-.00736C343.58432,264.31175,342.63679,264.20254,341.68927,264.14415Z" transform="translate(-20.35531 -173.86727)"/>
    <path d="M399.51062,625.26251c-.72168-.44775-.81749-1.25293-1.07122-1.93865q-12.37332-33.437-24.75071-66.87227a4.74484,4.74484,0,0,1,.42446-4.602c4.41029-7.27182,6.23094-15.358,7.121-23.71335.513-4.81617.4342-9.645.4756-14.47448a5.55523,5.55523,0,0,0-1.38479-3.80506c-7.222-8.76286-16.40467-14.93112-26.35873-20.09626-3.10306-1.61021-6.1926-3.24925-9.33411-4.7812-1.34148-.65421-1.34183-1.17073-.30336-2.159a157.39383,157.39383,0,0,0,12.68422-12.91946,51.79855,51.79855,0,0,0,11.74382-24.24408C371.1594,432.40447,377.1777,420.82,385.61168,410.43A12.14185,12.14185,0,0,0,387.7,406.62291q5.36823-15.6936,10.79384-31.3676a4.45534,4.45534,0,0,1,.95578-2.043c.85174.43247.84391,1.28684,1.06611,1.97193q5.117,15.77654,10.17083,31.57347a9.48436,9.48436,0,0,0,1.92891,3.45028,84.24536,84.24536,0,0,1,18.49989,35.53293c3.71358,14.94233,12.13917,26.67765,23.46389,36.64864,1.875,1.65082,1.8781,1.68785-.3335,2.93119-6.31707,3.5513-12.89954,6.61387-19.1134,10.3536a66.86383,66.86383,0,0,0-14.2197,11.42579c-2.947,3.118-4.06948,6.66794-4.39617,10.80186a63.204,63.204,0,0,0,7.24769,34.59983,3.80254,3.80254,0,0,1,.20685,3.25721q-11.77044,33.95569-23.49092,67.92869C400.28282,624.258,400.22474,624.96092,399.51062,625.26251Z" transform="translate(-20.35531 -173.86727)"/>
    <path d="M498.04327,623.32018a7.13083,7.13083,0,0,1,.82154-2.92437c3.65973-9.82562,7.30144-19.65836,11.04576-29.45175.66755-1.74591.19479-2.00833-1.45452-2.00181q-18.21464.07253-36.42958-.0041c-1.64987-.00759-1.94941.4314-1.47287,1.973,2.10157,6.79812,4.11694,13.62289,6.152,20.44147.29944,1.00319.53708,2.02486.942,3.56565a67.41253,67.41253,0,0,1-6.9019-5.90487c-7.59544-6.76352-15.134-13.591-22.69513-20.39308a18.35625,18.35625,0,0,1-4.63758-5.50015c-3.01757-6.249.09059-11.55267,7.01527-11.83213,2.60257-.10508,5.21277-.01332,7.81911-.04211.54472-.006,1.26849.25991,1.58778-.30662.32646-.57933-.3015-1.03979-.59158-1.49779q-10.255-16.191-20.54078-32.3624a22.73375,22.73375,0,0,1-3.11366-6.50094c-2.20842-8.57851,3.66719-16.25539,12.7764-16.56041,6.6862-.22387,11.49752,2.79864,14.27494,8.845,6.81787,14.84225,13.63975,29.68408,20.24864,44.61963,1.26481,2.85841,2.69595,3.89215,5.8846,3.8602,17.79988-.17806,35.60246-.08733,53.4041-.08556a14.71991,14.71991,0,0,1,5.974.9778c2.979,1.29611,4.00776,3.58931,3.02679,6.66152a13.588,13.588,0,0,1-3.917,5.7792c-4.38206,4.07725-9.26841,7.5368-13.94889,11.24646q-16.88878,13.38575-33.86768,26.6579A2.17257,2.17257,0,0,1,498.04327,623.32018Z" transform="translate(-20.35531 -173.86727)"/>
    <path d="M302.12689,623.08087a3.27678,3.27678,0,0,1-2.17233-1.057q-22.4879-17.68812-44.95257-35.40567a17.91568,17.91568,0,0,1-5.78616-6.9726c-1.56547-3.71349-.26682-6.51215,3.60375-7.71343a17.59549,17.59549,0,0,1,5.27039-.68338c18.18574.0122,36.37161-.01914,54.55712.04779,1.95535.00722,3.03243-.48963,3.88678-2.39218,6.9-15.36569,13.95493-30.66165,20.9055-46.00477a14.77741,14.77741,0,0,1,22.10713-6.25641c6.128,4.22041,7.27562,11.85952,2.80013,18.94706q-7.73937,12.25626-15.53705,24.47571c-2.01112,3.1663-4.00087,6.34661-6.04877,9.489-.79645,1.22215-.75648,1.71172.89874,1.73068,3.36176.03857,6.74063-.34374,10.085.281a7.06016,7.06016,0,0,1,5.85005,9.03911,13.591,13.591,0,0,1-4.40691,6.98118q-12.70881,11.39581-25.392,22.82023a32.3455,32.3455,0,0,1-4.93077,4.19477,2.82535,2.82535,0,0,1,.24949-2.14038c2.13279-7.1883,4.245-14.38309,6.44834-21.54983.47215-1.53589.19557-1.97931-1.45255-1.972q-18.31251.08047-36.62543-.00359c-1.831-.0095-1.79915.61375-1.27185,2.00726q5.46561,14.44451,10.83931,28.9237C301.42156,620.85656,301.72434,621.871,302.12689,623.08087Z" transform="translate(-20.35531 -173.86727)"/>
  </g>
</svg>
